<?xml version="1.0" encoding="UTF-8"?><!DOCTYPE svg PUBLIC "-//W3C//DTD SVG 1.1//EN" "http://www.w3.org/Graphics/SVG/1.1/DTD/svg11.dtd"><svg xmlns="http://www.w3.org/2000/svg" xmlns:xlink="http://www.w3.org/1999/xlink"><symbol id="ico_allservices" viewBox="0 0 16 15">
    <!-- Generator: Sketch 52.2 (67145) - http://www.bohemiancoding.com/sketch -->
    <title>ico_allservices</title>
    <desc>Created with Sketch.</desc>
    <g id="Page-1" stroke="none" stroke-width="1" fill="none" fill-rule="evenodd">
        <g id="ico_allservices" fill="currentColor">
            <rect id="Rectangle" x="4" y="1" width="12" height="1"/>
            <rect id="Rectangle" x="4" y="5" width="11" height="1"/>
            <rect id="Rectangle" x="4" y="9" width="12" height="1"/>
            <rect id="Rectangle" x="4" y="13" width="9" height="1"/>
            <circle id="Oval" cx="1" cy="1.5" r="1"/>
            <circle id="Oval" cx="1" cy="5.5" r="1"/>
            <circle id="Oval" cx="1" cy="13.5" r="1"/>
            <circle id="Oval" cx="1" cy="9.5" r="1"/>
        </g>
    </g>
</symbol><symbol id="ico_archive_box" viewBox="0 0 14 13"><path d="M13.46,2A1.5,1.5,0,0,0,12,.5H2A1.5,1.5,0,0,0,.54,2V4.27h.64V11a1.5,1.5,0,0,0,1.5,1.5h8.65a1.5,1.5,0,0,0,1.5-1.5V4.27h.64ZM1.54,2A.5.5,0,0,1,2,1.5H12a.5.5,0,0,1,.5.5V3.27H1.54Zm10.29,9a.5.5,0,0,1-.5.5H2.67a.5.5,0,0,1-.5-.5V4.27h9.65ZM9,6H5V5H9Z"/></symbol><symbol id="ico_archive_box_open" viewBox="0 0 22 22">
<path d="M14.3,8.9c0,0.5-0.4,0.8-0.8,0.8H8.6c-0.5,0-0.8-0.4-0.8-0.8c0-0.5,0.4-0.8,0.8-0.8h4.8C13.9,8.1,14.3,8.5,14.3,8.9z
	 M20.2,5.7V19c0,0.8-0.7,1.5-1.5,1.5H3.3c-0.8,0-1.5-0.7-1.5-1.5V5.7h2V1.5h14.4v4.2H20.2z M19.2,6.7h-1H3.8h-1V19
	c0,0.3,0.2,0.5,0.5,0.5h15.3c0.3,0,0.5-0.2,0.5-0.5V6.7z"/>
</symbol><symbol id="ico_archive_box_thin" viewBox="0 0 22 22">
<path d="M21.2,3c0-0.8-0.7-1.5-1.5-1.5H2.3C1.5,1.5,0.8,2.2,0.8,3v3.7h1V19c0,0.8,0.7,1.5,1.5,1.5h15.3c0.8,0,1.5-0.7,1.5-1.5V6.7h1
	V3z M19.2,19c0,0.3-0.2,0.5-0.5,0.5H3.3c-0.3,0-0.5-0.2-0.5-0.5V6.7h16.3V19z M20.2,5.7L20.2,5.7H1.8h0V3c0-0.3,0.2-0.5,0.5-0.5
	h17.4c0.3,0,0.5,0.2,0.5,0.5V5.7z M7.7,8.9c0-0.5,0.4-0.8,0.8-0.8h4.8c0.5,0,0.8,0.4,0.8,0.8s-0.4,0.8-0.8,0.8H8.6
	C8.1,9.8,7.7,9.4,7.7,8.9z"/>
</symbol><symbol id="ico_arrow_small_right" viewBox="0 0 25 14">
<path fill="#0070BC" d="M24.9,7.3L24.9,7.3C24.9,7.4,24.9,7.4,24.9,7.3l-6.3,6.5c-0.1,0.1-0.2,0.2-0.4,0.2c-0.1,0-0.3,0-0.3-0.1
	c-0.2-0.2-0.2-0.5,0-0.7l5.5-5.7H0.5C0.2,7.5,0,7.3,0,7s0.2-0.5,0.5-0.5h22.8l-5.5-5.7c-0.2-0.2-0.2-0.5,0-0.7C18,0,18.3,0,18.5,0.2
	l6.3,6.5c0,0,0,0,0,0l0,0c0,0,0,0,0,0.1c0,0,0.1,0.1,0.1,0.1c0,0.1,0,0.1,0,0.2c0,0,0,0,0,0s0,0,0,0c0,0.1,0,0.1,0,0.2
	C24.9,7.2,24.9,7.3,24.9,7.3C24.9,7.3,24.9,7.3,24.9,7.3z"/>
</symbol><symbol id="ico_arrow_xsmall" viewBox="0 0 19.1 12.1">
<path fill="currentColor" d="M18.9,6.4l-5.4,5.5c-0.1,0.1-0.2,0.2-0.4,0.2c-0.1,0-0.3,0-0.3-0.1c-0.2-0.2-0.2-0.5,0-0.7l4.6-4.7H0.5
	C0.2,6.5,0,6.3,0,6s0.2-0.5,0.5-0.5h16.9l-4.6-4.7c-0.2-0.2-0.2-0.5,0-0.7C13,0,13.3,0,13.5,0.2l5.4,5.5C19.1,5.9,19.1,6.2,18.9,6.4
	z"/>
</symbol><symbol id="ico_arrow_xsmall_right_down" viewBox="0 0 8 8">
<path fill="currentColor" class="st0" d="M7.7,7.3C7.7,7.3,7.8,7.3,7.7,7.3C7.7,7.3,7.7,7.3,7.7,7.3c0,0.1,0,0.1,0,0.1c0,0,0,0,0,0.1c0,0,0,0,0,0
	c0,0,0,0.1-0.1,0.1c0,0,0,0.1-0.1,0.1c0,0,0,0,0,0c0,0,0,0,0,0c0,0-0.1,0-0.1,0.1c0,0,0,0-0.1,0c0,0,0,0,0,0c0,0-0.1,0-0.1,0
	c0,0,0,0-0.1,0c0,0,0,0,0,0s0,0,0,0L2.1,7.6c-0.3,0-0.5-0.2-0.5-0.5c0-0.3,0.2-0.5,0.5-0.5L6,6.7L0.4,1.1c-0.2-0.2-0.2-0.5,0-0.7
	s0.5-0.2,0.7,0L6.7,6L6.6,2.1c0-0.3,0.2-0.5,0.5-0.5c0.3,0,0.5,0.2,0.5,0.5L7.7,7.3C7.8,7.2,7.7,7.2,7.7,7.3
	C7.7,7.2,7.7,7.3,7.7,7.3z"/>
</symbol><symbol id="ico_calendar" viewBox="0 0 20 20">
<path fill="currentColor" d="M19.4,2.4h-5.3V0.6c0-0.4-0.4-0.6-0.6-0.6c-0.2,0-0.6,0.2-0.6,0.6v1.8H7.1V0.6C7.1,0.2,6.7,0,6.5,0S5.9,0.2,5.9,0.6v1.8H0.6
	C0.2,2.4,0,2.7,0,2.9v16.5C0,19.8,0.2,20,0.6,20h18.8c0.4,0,0.6-0.2,0.6-0.6V2.9C20,2.7,19.8,2.4,19.4,2.4z M18.8,18.8H1.2V3.5h4.7
	v1.6c0,0.5,0.2,0.7,0.6,0.7s0.6-0.2,0.6-0.6V3.5h5.9v1.6c0,0.5,0.2,0.7,0.6,0.7c0.4,0,0.6-0.2,0.6-0.6V3.5h4.7V18.8z M6.5,8.4v1.8
	c0,0.4-0.2,0.6-0.6,0.6H4.1c-0.4,0-0.6-0.2-0.6-0.6V8.4c0-0.4,0.2-0.6,0.6-0.6h1.8C6.2,7.8,6.5,8.1,6.5,8.4z M11.4,8.4v1.8
	c0,0.4-0.2,0.6-0.6,0.6H9.2c-0.4,0-0.6-0.2-0.6-0.6V8.4c0-0.4,0.2-0.6,0.6-0.6h1.8C11.2,7.8,11.4,8.1,11.4,8.4z M14.1,7.8h1.8
	c0.4,0,0.6,0.2,0.6,0.6v1.8c0,0.4-0.2,0.6-0.6,0.6h-1.8c-0.4,0-0.6-0.2-0.6-0.6V8.4C13.5,8.1,13.8,7.8,14.1,7.8z M6.5,13.5v1.8
	c0,0.4-0.2,0.6-0.6,0.6H4.1c-0.4,0-0.6-0.2-0.6-0.6v-1.8c0-0.4,0.2-0.6,0.6-0.6h1.8C6.2,12.9,6.5,13.2,6.5,13.5z M11.4,13.5v1.8
	c0,0.4-0.2,0.6-0.6,0.6H9.2c-0.4,0-0.6-0.2-0.6-0.6v-1.8c0-0.4,0.2-0.6,0.6-0.6h1.8C11.2,12.9,11.4,13.2,11.4,13.5z M16.5,13.5v1.8
	c0,0.4-0.2,0.6-0.6,0.6h-1.8c-0.4,0-0.6-0.2-0.6-0.6v-1.8c0-0.4,0.2-0.6,0.6-0.6h1.8C16.2,12.9,16.5,13.2,16.5,13.5z"/>
</symbol><symbol id="ico_clock_process" viewBox="0 0 22 22">
<path id="Page-1" d="M19.8,7.4C17.7,2.4,12-0.1,7,2C6,2.3,5.1,2.8,4.3,3.4l0.2-1.5C4.6,1.5,4.4,1.2,4,1.1S3.3,1.2,3.2,1.6
	c0,0,0,0.1,0,0.1L2.7,5.2l0,0c0,0,0,0.1,0,0.1c0,0,0,0.1,0,0.1c0,0,0,0.1,0,0.1v0.1l0,0l0.1,0.1l0.1,0.1L3,5.9h3.6
	C7,6,7.4,5.7,7.4,5.3S7.2,4.5,6.8,4.5H5c0.8-0.5,1.6-1,2.5-1.3c4.3-1.7,9.3,0.3,11,4.7s-0.3,9.3-4.7,11c-4.3,1.7-9.3-0.3-11-4.7
	c-0.2-0.3-0.6-0.5-0.9-0.3c-0.3,0.2-0.4,0.5-0.3,0.8c2,5,7.8,7.5,12.8,5.4S21.8,12.4,19.8,7.4z M9.3,11.3c0,0.1,0,0.1,0,0.2l0,0
	c0,0.1,0.1,0.1,0.1,0.2l0,0c0,0,0.1,0.1,0.2,0.1l0,0l5.6,2.4c0.4,0.1,0.8,0,0.9-0.4s0-0.8-0.4-0.9l-5-2.1V7c0-0.4-0.4-0.6-0.8-0.6
	C9.7,6.4,9.4,6.7,9.4,7L9.3,11.3L9.3,11.3z"/>
</symbol><symbol id="ico_cross" viewBox="0 0 11 11"><path fill="" d="M6.21,5.5l4.4,4.4-.71.71L5.5,6.21l-4.4,4.4L.39,9.9l4.4-4.4L.39,1.1,1.1.39l4.4,4.4L9.9.39l.71.71Z"/></symbol><symbol id="ico_document" viewBox="0 0 15 20">
<path fill="" d="M15,5.3c0,0,0-0.1-0.1-0.1c0,0,0,0,0,0l-4.9-5c0,0,0,0,0,0c0,0-0.1-0.1-0.2-0.1C9.7,0,9.6,0,9.6,0H0.5
	C0.2,0,0,0.2,0,0.5v19C0,19.8,0.2,20,0.5,20h14c0.3,0,0.5-0.2,0.5-0.5v-14C15,5.4,15,5.3,15,5.3z M10.1,1.7L13.3,5h-3.2V1.7z M1,19
	V1h8.1v4.5C9.1,5.7,9.3,6,9.6,6H14v13H1z"/>
</symbol><symbol id="ico_drag_drop" viewBox="0 0 24 24">
<path d="M21.2,12.1l-3.6,3.6L17,15l2.5-2.5h-7v6.8l2.4-2.4l0.7,0.7
	l-3.6,3.6l-3.6-3.6l0.7-0.7l2.4,2.4v-6.8H4.7L7.2,15l-0.7,0.7l-3.7-3.6l3.6-3.6l0.7,0.7l-2.4,2.3h6.8V4.7L9.1,7.1L8.4,6.4l3.6-3.6
	l3.6,3.6l-0.7,0.7l-2.4-2.4v6.8h6.8l-2.4-2.4l0.7-0.7L21.2,12.1z"/>
</symbol><symbol id="ico_envelope_circle_inverted" viewBox="0 0 22 22">
<path d="M8,6.5c0,2.2-1.8,4-4,4s-4-1.8-4-4s1.8-4,4-4S8,4.3,8,6.5z M20.5,7.5H8.9c-0.1,0.3-0.2,0.7-0.3,1h12l-7.5,5
	c-0.3,0.2-0.8,0.2-1.1,0l-4.8-3.2c-0.3,0.2-0.6,0.4-0.9,0.6l5.1,3.4c0.7,0.4,1.5,0.4,2.2,0L21,9.4V18c0,0.3-0.2,0.5-0.5,0.5h-16
	C4.2,18.5,4,18.3,4,18v-6.5c-0.3,0-0.7,0-1-0.1V18c0,0.8,0.7,1.5,1.5,1.5h16c0.8,0,1.5-0.7,1.5-1.5V9C22,8.2,21.3,7.5,20.5,7.5z"/>
</symbol><symbol id="ico_envelope_circle_inverted_checkmark" viewBox="0 0 22 22">
<path id="Page-1" d="M8,6.5c0-2.2-1.8-4-4-4s-4,1.8-4,4s1.8,4,4,4S8,8.7,8,6.5z M1.6,7.2l0.6-0.8l1.2,1l2.1-2.9l0.8,0.6L3.6,8.8
	L1.6,7.2z M22,9v9c0,0.8-0.7,1.5-1.5,1.5h-16C3.7,19.5,3,18.8,3,18v-6.6c0.3,0.1,0.7,0.1,1,0.1V18c0,0.3,0.2,0.5,0.5,0.5h16
	c0.3,0,0.5-0.2,0.5-0.5V9.4l-7.4,4.9c-0.7,0.4-1.5,0.4-2.2,0l-5.1-3.4c0.3-0.2,0.6-0.4,0.9-0.6l4.8,3.2c0.3,0.2,0.8,0.2,1.1,0l7.5-5
	h-12c0.1-0.3,0.2-0.7,0.3-1h11.6C21.3,7.5,22,8.2,22,9z"/>
</symbol><symbol id="ico_exclamation_mark_inverted" viewBox="0 0 15 15"><path d="M7.5,0A7.5,7.5,0,1,0,15,7.5,7.5,7.5,0,0,0,7.5,0Zm0,12a1,1,0,1,1,1-1A1,1,0,0,1,7.5,12Zm.8-6L8,9H7L6.7,6,6.5,3h2Z"/></symbol><symbol id="ico_expand" viewBox="0 0 11 15">
<path fill="#0C70B7" d="M11,0.5L11,0.5l0,5C11,5.8,10.8,6,10.5,6S10,5.8,10,5.5V1.7L3.8,7.9C3.7,8,3.6,8,3.5,8S3.2,8,3.1,7.9
	c-0.2-0.2-0.2-0.5,0-0.7L9.3,1H5.5C5.2,1,5,0.8,5,0.5S5.2,0,5.5,0h5c0,0,0,0,0,0c0.1,0,0.1,0,0.2,0c0.1,0,0.1,0.1,0.1,0.1
	c0,0,0,0,0,0c0,0,0,0,0,0c0,0,0.1,0.1,0.1,0.1C11,0.4,11,0.4,11,0.5z M7.2,7.1L1,13.3V9.5C1,9.2,0.8,9,0.5,9S0,9.2,0,9.5v5l0,0
	c0,0.1,0,0.1,0,0.2c0.1,0.1,0.1,0.2,0.3,0.3c0.1,0,0.1,0,0.2,0h5C5.8,15,6,14.8,6,14.5S5.8,14,5.5,14H1.7l6.2-6.2
	c0.2-0.2,0.2-0.5,0-0.7C7.7,6.9,7.4,6.9,7.2,7.1z"/>
</symbol><symbol id="ico_external_links" viewBox="0 0 22 17">
<path fill="#0070BC" d="M22,4.4c0,0.1-0.1,0.3-0.2,0.4l-4.1,3.9c-0.1,0.1-0.2,0.1-0.3,0.1c-0.1,0-0.3-0.1-0.4-0.2
	c-0.2-0.2-0.2-0.5,0-0.7l3.2-3.1h-6.2c-4.3,0-7.8,3.4-7.8,7.5c0,0.3-0.2,0.5-0.5,0.5s-0.5-0.2-0.5-0.5c0-4.7,4-8.5,8.8-8.5h6.2
	L17,0.9c-0.2-0.2-0.2-0.5,0-0.7c0.2-0.2,0.5-0.2,0.7,0l4.1,3.9C21.9,4.2,22,4.3,22,4.4z M19.1,10.9c-0.3,0-0.5,0.2-0.5,0.5V16H1V3.9
	h5.6c0.3,0,0.5-0.2,0.5-0.5S6.9,2.9,6.6,2.9H0V17h19.6v-5.6C19.6,11.2,19.4,10.9,19.1,10.9z"/>
</symbol><symbol id="ico_facebook_comment" viewBox="0 0 15 13.9">
<path fill="#0070BC" d="M11.6,0H3.4C1.5,0,0,1.5,0,3.4v3.7c0,1.9,1.5,3.4,3.4,3.4h0.4l1.5,3c0.1,0.2,0.2,0.3,0.4,0.3c0,0,0,0,0,0
	c0.2,0,0.3-0.1,0.4-0.2l2.3-3.1h3c1.9,0,3.4-1.5,3.4-3.4V3.4C15,1.5,13.5,0,11.6,0z M14,7.1c0,1.3-1.1,2.4-2.4,2.4H8.3
	C8.2,9.6,8,9.6,7.9,9.8l-2,2.7L4.6,9.8C4.5,9.7,4.4,9.6,4.2,9.6H3.4C2.1,9.6,1,8.5,1,7.1V3.4C1,2.1,2.1,1,3.4,1h8.2
	C12.9,1,14,2.1,14,3.4V7.1z"/>
</symbol><symbol id="ico_fullscreen" viewBox="0 0 16 16">
    <!-- Generator: Sketch 52.2 (67145) - http://www.bohemiancoding.com/sketch -->
    <title>Shape</title>
    <desc>Created with Sketch.</desc>
    <g id="Page-1" stroke="none" stroke-width="1" fill="none" fill-rule="evenodd">
        <g id="download" transform="translate(-3.000000, -48.000000)" fill="#000000" fill-rule="nonzero">
            <path d="M3,48 L3,54 L5,54 L5,50 L9,50 L9,48 L3,48 Z M13,48 L13,50 L17,50 L17,54 L19,54 L19,48 L13,48 Z M3,58 L3,64 L9,64 L9,62 L5,62 L5,58 L3,58 Z M17,58 L17,62 L13,62 L13,64 L19,64 L19,58 L17,58 Z" id="Shape"/>
        </g>
    </g>
</symbol><symbol id="ico_fullscreen_enabled" viewBox="0 0 16 16">
    <!-- Generator: Sketch 52.2 (67145) - http://www.bohemiancoding.com/sketch -->
    <title>Shape</title>
    <desc>Created with Sketch.</desc>
    <g id="Page-1" stroke="none" stroke-width="1" fill="none" fill-rule="evenodd">
        <g id="download" transform="translate(-3.000000, -74.000000)" fill="#000000" fill-rule="nonzero">
            <path d="M3,74 L3,80 L5,80 L5,76 L9,76 L9,74 L3,74 Z M13,74 L13,76 L17,76 L17,80 L19,80 L19,74 L13,74 Z M8,79 L8,85 L14,85 L14,79 L8,79 Z M3,84 L3,90 L9,90 L9,88 L5,88 L5,84 L3,84 Z M17,84 L17,88 L13,88 L13,90 L19,90 L19,84 L17,84 Z" id="Shape"/>
        </g>
    </g>
</symbol><symbol id="ico_gearwheel" viewBox="0 0 19 19">
<path fill="" d="M11.5,6.1c-0.9-0.5-1.9-0.7-2.9-0.4C7.5,6,6.7,6.6,6.2,7.5c-1.1,1.9-0.5,4.2,1.4,5.3c0.6,0.4,1.3,0.5,2,0.5
	c0.3,0,0.7,0,1-0.1c1-0.3,1.8-0.9,2.4-1.8C13.9,9.6,13.3,7.2,11.5,6.1z M12,11c-0.4,0.7-1,1.1-1.8,1.3c-0.7,0.2-1.5,0.1-2.2-0.3
	c-1.4-0.8-1.8-2.6-1-4c0.4-0.7,1-1.1,1.8-1.3C9,6.6,9.3,6.6,9.5,6.6c0.5,0,1,0.1,1.4,0.4C12.3,7.8,12.8,9.6,12,11z M18.9,6.9
	c-0.1-0.1-0.2-0.1-0.4-0.1c0,0,0,0,0,0l-1.7,0c-0.3-0.8-0.6-1.5-1.2-2.2l0.8-1.5c0.1-0.2,0.1-0.5-0.2-0.7l-3.9-2.3
	C12.3,0.1,12.2,0,12,0.1c-0.1,0-0.2,0.1-0.3,0.2l-0.8,1.5c-0.8-0.2-1.7-0.2-2.6,0L7.5,0.3C7.4,0.1,7.3,0.1,7.2,0C7,0,6.9,0,6.8,0.1
	L2.9,2.3C2.6,2.4,2.5,2.7,2.7,3l0.8,1.5C3.2,4.8,3,5.2,2.8,5.5C2.6,5.9,2.4,6.3,2.2,6.7l-1.7,0c-0.1,0-0.3,0.1-0.4,0.1
	C0.1,6.9,0,7,0,7.2l0,4.5c0,0.3,0.2,0.5,0.5,0.5l1.7,0c0.3,0.9,0.7,1.6,1.3,2.3L2.7,16c-0.1,0.2-0.1,0.5,0.2,0.7l3.9,2.3
	C6.8,19,6.9,19,7,19c0,0,0.1,0,0.1,0c0.1,0,0.2-0.1,0.3-0.2l0.8-1.5c0.9,0.2,1.7,0.1,2.5,0l0.8,1.5c0.1,0.1,0.2,0.2,0.3,0.2
	c0.1,0,0.3,0,0.4,0l3.9-2.2c0.2-0.1,0.3-0.4,0.2-0.7l-0.8-1.5c0.3-0.3,0.5-0.7,0.7-1.1c0.2-0.4,0.4-0.8,0.6-1.2l1.7,0
	c0.1,0,0.3-0.1,0.4-0.1c0.1-0.1,0.1-0.2,0.1-0.4l0-4.5C19,7.1,18.9,7,18.9,6.9z M18,11.3l-1.5,0c0,0,0,0,0,0c-0.2,0-0.4,0.1-0.5,0.3
	c-0.2,0.5-0.3,0.9-0.6,1.3c-0.2,0.4-0.5,0.8-0.8,1.2c-0.1,0.2-0.2,0.4-0.1,0.6l0.8,1.4l-3,1.7l-0.7-1.3c-0.1-0.2-0.3-0.3-0.4-0.3
	c0,0-0.1,0-0.1,0c-1,0.2-1.8,0.3-2.8,0c-0.2-0.1-0.4,0-0.6,0.2l-0.8,1.3l-3-1.8l0.8-1.3c0.1-0.2,0.1-0.4-0.1-0.6
	c-0.7-0.7-1.1-1.5-1.4-2.5c-0.1-0.2-0.3-0.3-0.5-0.3l-1.6,0l0-3.5l1.5,0C2.8,7.7,3,7.5,3,7.3C3.2,6.9,3.4,6.4,3.6,6
	c0.2-0.4,0.5-0.8,0.9-1.2c0.1-0.2,0.2-0.4,0.1-0.6L3.8,2.9l3-1.7l0.8,1.4c0.1,0.2,0.3,0.3,0.5,0.2c1.1-0.2,1.9-0.2,2.9,0
	c0.2,0.1,0.4,0,0.6-0.2l0.8-1.3l3,1.8l-0.8,1.3c-0.1,0.2-0.1,0.4,0.1,0.6c0.7,0.8,1.1,1.5,1.4,2.5c0.1,0.2,0.3,0.4,0.5,0.4
	c0,0,0,0,0,0l1.5,0L18,11.3z"/>
</symbol><symbol id="ico_grid" viewBox="0 0 22 22">
<path d="M5.5,1.5h-3c-0.6,0-1,0.4-1,1v3c0,0.6,0.4,1,1,1h3c0.6,0,1-0.4,1-1v-3C6.5,1.9,6.1,1.5,5.5,1.5z M5.5,5.5h-3v-3h3V5.5z
	 M19.5,1.5h-3c-0.6,0-1,0.4-1,1v3c0,0.6,0.4,1,1,1h3c0.6,0,1-0.4,1-1v-3C20.5,1.9,20.1,1.5,19.5,1.5z M19.5,5.5h-3v-3h3V5.5z
	 M5.5,15.5h-3c-0.6,0-1,0.4-1,1v3c0,0.6,0.4,1,1,1h3c0.6,0,1-0.4,1-1v-3C6.5,15.9,6.1,15.5,5.5,15.5z M5.5,19.5h-3v-3h3V19.5z
	 M19.5,15.5h-3c-0.6,0-1,0.4-1,1v3c0,0.6,0.4,1,1,1h3c0.6,0,1-0.4,1-1v-3C20.5,15.9,20.1,15.5,19.5,15.5z M19.5,19.5h-3v-3h3V19.5z
	 M5.5,8.5h-3c-0.6,0-1,0.4-1,1v3c0,0.6,0.4,1,1,1h3c0.6,0,1-0.4,1-1v-3C6.5,8.9,6.1,8.5,5.5,8.5z M5.5,12.5h-3v-3h3V12.5z M12.5,1.5
	h-3c-0.6,0-1,0.4-1,1v3c0,0.6,0.4,1,1,1h3c0.6,0,1-0.4,1-1v-3C13.5,1.9,13.1,1.5,12.5,1.5z M12.5,5.5h-3v-3h3V5.5z M12.5,15.5h-3
	c-0.6,0-1,0.4-1,1v3c0,0.6,0.4,1,1,1h3c0.6,0,1-0.4,1-1v-3C13.5,15.9,13.1,15.5,12.5,15.5z M12.5,19.5h-3v-3h3V19.5z M12.5,8.5h-3
	c-0.6,0-1,0.4-1,1v3c0,0.6,0.4,1,1,1h3c0.6,0,1-0.4,1-1v-3C13.5,8.9,13.1,8.5,12.5,8.5z M12.5,12.5h-3v-3h3V12.5z M19.5,8.5h-3
	c-0.6,0-1,0.4-1,1v3c0,0.6,0.4,1,1,1h3c0.6,0,1-0.4,1-1v-3C20.5,8.9,20.1,8.5,19.5,8.5z M19.5,12.5h-3v-3h3V12.5z"/>
</symbol><symbol id="ico_hotspot" viewBox="0 0 10 12">
    <!-- Generator: Sketch 53 (72520) - https://sketchapp.com -->
    <title>ico_hotspot</title>
    <desc>Created with Sketch.</desc>
    <g id="Page-1" stroke="none" stroke-width="1" fill="none" fill-rule="evenodd">
        <g id="ico_hotspot" transform="translate(-1.000000, 0.000000)" fill="#000000" fill-rule="nonzero">
            <g id="ico_arrow_xsmall_right_down" transform="translate(6.128258, 6.128258) rotate(-135.000000) translate(-6.128258, -6.128258) translate(1.794925, 1.794925)">
                <path d="M8.34166667,7.90833333 C8.34166667,7.90833333 8.45,7.90833333 8.34166667,7.90833333 C8.34166667,7.90833333 8.34166667,7.90833333 8.34166667,7.90833333 C8.34166667,8.01666667 8.34166667,8.01666667 8.34166667,8.01666667 C8.34166667,8.01666667 8.34166667,8.01666667 8.34166667,8.125 C8.34166667,8.125 8.34166667,8.125 8.34166667,8.125 C8.34166667,8.125 8.34166667,8.23333333 8.23333333,8.23333333 C8.23333333,8.23333333 8.23333333,8.34166667 8.125,8.34166667 C8.125,8.34166667 8.125,8.34166667 8.125,8.34166667 C8.125,8.34166667 8.125,8.34166667 8.125,8.34166667 C8.125,8.34166667 8.01666667,8.34166667 8.01666667,8.45 C8.01666667,8.45 8.01666667,8.45 7.90833333,8.45 C7.90833333,8.45 7.90833333,8.45 7.90833333,8.45 C7.90833333,8.45 7.8,8.45 7.8,8.45 C7.8,8.45 7.8,8.45 7.69166667,8.45 C7.69166667,8.45 7.69166667,8.45 7.69166667,8.45 C7.69166667,8.45 7.69166667,8.45 7.69166667,8.45 L2.275,8.23333333 C1.95,8.23333333 1.73333333,8.01666667 1.73333333,7.69166667 C1.73333333,7.36666667 1.95,7.15 2.275,7.15 L6.5,7.25833333 L0.433333333,1.19166667 C0.216666667,0.975 0.216666667,0.65 0.433333333,0.433333333 C0.65,0.216666667 0.975,0.216666667 1.19166667,0.433333333 L7.25833333,6.5 L7.15,2.275 C7.15,1.95 7.36666667,1.73333333 7.69166667,1.73333333 C8.01666667,1.73333333 8.23333333,1.95 8.23333333,2.275 L8.34166667,7.90833333 C8.45,7.8 8.34166667,7.8 8.34166667,7.90833333 C8.34166667,7.8 8.34166667,7.90833333 8.34166667,7.90833333 Z" id="Path"/>
            </g>
        </g>
    </g>
</symbol><symbol id="ico_hotspot_info" viewBox="0 0 2 14">
    <!-- Generator: Sketch 53 (72520) - https://sketchapp.com -->
    <title>ico_hotspot_info</title>
    <desc>Created with Sketch.</desc>
    <g id="Page-1" stroke="none" stroke-width="1" fill="none" fill-rule="evenodd">
        <g id="ico_hotspot_info" fill="#0070BC" fill-rule="nonzero">
            <path d="M1.75,5.91287879 L1.75,12.5946969 C1.75,12.9287879 1.52727273,13.1515152 1.19318181,13.1515152 C0.859090909,13.1515152 0.636363636,12.9287879 0.636363636,12.5946969 L0.636363636,5.91287879 C0.636363636,5.57878788 0.859090909,5.35606061 1.19318181,5.35606061 C1.52727273,5.35606061 1.75,5.57878788 1.75,5.91287879 Z M1.97272727,1.34696969 L1.97272727,2.23787879 C1.97272727,2.68333333 1.63863636,3.12878788 1.08181818,3.12878788 C0.525,3.12878788 0.413636364,2.68333333 0.413636364,2.23787879 L0.413636364,1.34696969 C0.413636364,0.901515152 0.747727273,0.456060606 1.30454546,0.456060606 C1.86136364,0.456060606 1.97272727,0.790151515 1.97272727,1.34696969 Z" id="Shape"/>
        </g>
    </g>
</symbol><symbol id="ico_list" viewBox="0 0 20 20">
	<path d="M5.9,3.8 C5.63221302,3.78080041 5.41919959,3.56778698 5.4,3.3 C5.41919959,3.03221302 5.63221302,2.81919959 5.9,2.8 L19.4,2.8 C19.5351515,2.79105903 19.6675899,2.84085927 19.7633653,2.9366347 C19.8591407,3.03241012 19.908941,3.16484852 19.9,3.3 C19.908941,3.43515148 19.8591407,3.56758988 19.7633653,3.6633653 C19.6675899,3.75914073 19.5351515,3.80894097 19.4,3.8 L5.9,3.8 Z M19.5,9.5 C19.6259305,9.49598259 19.7463936,9.55153335 19.8251018,9.64991859 C19.90381,9.74830383 19.9315627,9.87802283 19.9,10 C19.908941,10.1351515 19.8591407,10.2675899 19.7633653,10.3633653 C19.6675899,10.4591407 19.5351515,10.508941 19.4,10.5 L5.9,10.5 C5.62385763,10.5 5.4,10.2761424 5.4,10 C5.4,9.72385763 5.62385763,9.5 5.9,9.5 L19.5,9.5 Z M19.5,16.2 C19.6259305,16.1959826 19.7463936,16.2515333 19.8251018,16.3499186 C19.90381,16.4483038 19.9315627,16.5780228 19.9,16.7 C19.908941,16.8351515 19.8591407,16.9675899 19.7633653,17.0633653 C19.6675899,17.1591407 19.5351515,17.208941 19.4,17.2 L5.9,17.2 C5.62385763,17.2 5.4,16.9761424 5.4,16.7 C5.4,16.4238576 5.62385763,16.2 5.9,16.2 L19.5,16.2 Z M1.7,8.9 C1.83515148,8.89105903 1.96758988,8.94085927 2.0633653,9.0366347 C2.15914073,9.13241012 2.20894097,9.26484852 2.2,9.4 L2.2,10.6 C2.20894097,10.7351515 2.15914073,10.8675899 2.0633653,10.9633653 C1.96758988,11.0591407 1.83515148,11.108941 1.7,11.1 L0.5,11.1 C0.36484852,11.108941 0.232410121,11.0591407 0.136634697,10.9633653 C0.0408592736,10.8675899 -0.00894096984,10.7351515 -3.85325452e-16,10.6 L-3.85325452e-16,9.4 C0.0191995936,9.13221302 0.232213025,8.91919959 0.5,8.9 L1.7,8.9 Z M1.7,15.6 C1.96778698,15.6191996 2.18080041,15.832213 2.2,16.1 L2.2,17.3 C2.20894097,17.4351515 2.15914073,17.5675899 2.0633653,17.6633653 C1.96758988,17.7591407 1.83515148,17.808941 1.7,17.8 L0.5,17.8 C0.36484852,17.808941 0.232410121,17.7591407 0.136634697,17.6633653 C0.0408592736,17.5675899 -0.00894096984,17.4351515 -2.92084065e-16,17.3 L-2.92084065e-16,16.1 C-0.00894096984,15.9648485 0.0408592736,15.8324101 0.136634697,15.7366347 C0.232410121,15.6408593 0.36484852,15.591059 0.5,15.6 L1.7,15.6 Z M1.7,2.2 C1.83515148,2.19105903 1.96758988,2.24085927 2.0633653,2.3366347 C2.15914073,2.43241012 2.20894097,2.56484852 2.2,2.7 L2.2,3.9 C2.20894097,4.03515148 2.15914073,4.16758988 2.0633653,4.2633653 C1.96758988,4.35914073 1.83515148,4.40894097 1.7,4.4 L0.5,4.4 C0.36484852,4.40894097 0.232410121,4.35914073 0.136634697,4.2633653 C0.0408592736,4.16758988 -0.00894096984,4.03515148 -2.86879895e-16,3.9 L-2.86879895e-16,2.7 C0.0191995936,2.43221302 0.232213025,2.21919959 0.5,2.2 L1.7,2.2 Z" fill="currentColor" fill-rule="nonzero"/>
</symbol><symbol id="ico_location_small" viewBox="0 0 13 18">
<path fill="#0070BC" d="M6.5,0C2.9,0,0,2.9,0,6.4c0,3.4,5.9,10.8,6.1,11.1L6.5,18l0.4-0.5C7.1,17.2,13,9.7,13,6.4
	C13,2.9,10.1,0,6.5,0z M6.5,16.4C4.7,14,1,8.7,1,6.4C1,3.4,3.5,1,6.5,1S12,3.4,12,6.4C12,8.7,8.3,14,6.5,16.4z M6.5,2.7
	c-2,0-3.7,1.6-3.7,3.6S4.5,10,6.5,10s3.7-1.6,3.7-3.6S8.5,2.7,6.5,2.7z M6.5,9C5,9,3.8,7.8,3.8,6.4S5,3.7,6.5,3.7s2.7,1.2,2.7,2.6
	S8,9,6.5,9z"/>
</symbol><symbol id="ico_mail" viewBox="0 0 24 24">
<path id="Icons_x2F_24_x2F_ico_x5F_mail_x2F_v2" d="M4,7v10h16V7H4z M4,6h16c0.6,0,1,0.4,1,1v10c0,0.6-0.4,1-1,1H4c-0.6,0-1-0.4-1-1
	V7C3,6.4,3.4,6,4,6z M3.3,7.1l0.6-0.8l7.8,5.8c0.2,0.1,0.4,0.1,0.6,0l7.8-5.8l0.6,0.8l-7.8,5.8c-0.5,0.4-1.3,0.4-1.8,0L3.3,7.1z"/>
</symbol><symbol id="ico_map" viewBox="0 0 20 20">
    <path fill="currentColor" d="M19.66,2.77,13.33.17a.52.52,0,0,0-.37,0L6.84,2.53.71.16A.48.48,0,0,0,.25.22.48.48,0,0,0,0,.63v16.2a.5.5,0,0,0,.31.47l6.31,2.53a.41.41,0,0,0,.19,0,.57.57,0,0,0,.18,0l6.13-2.39,6.15,2.29a.48.48,0,0,0,.46-.06.49.49,0,0,0,.21-.41v-16A.48.48,0,0,0,19.66,2.77ZM7.34,3.41l5.3-2V16.57l-5.3,2.07ZM1,1.36,6.34,3.41V18.63L1,16.5ZM19,18.55l-5.33-2V1.37L19,3.56Z"/>
</symbol><symbol id="ico_marker" viewBox="0 0 28 38">
<path fill="#0070BC" d="M14,0C6.3,0,0,6,0,13.4S14,38,14,38s14-17.3,14-24.6S21.7,0,14,0z M14,20.5c-4.1,0-7.4-3.2-7.4-7.1
	S9.9,6.3,14,6.3c4.1,0,7.4,3.2,7.4,7.1S18.1,20.5,14,20.5z"/>
</symbol><symbol id="ico_messages" viewBox="0 0 18 12">
    <!-- Generator: Sketch 52.2 (67145) - http://www.bohemiancoding.com/sketch -->
    <title>ico_mail</title>
    <desc>Created with Sketch.</desc>
    <g id="Page-1" stroke="none" stroke-width="1" fill="none" fill-rule="evenodd">
        <g id="ico_mail" fill="currentColor" fill-rule="nonzero">
            <path d="M1,1 L1,11 L17,11 L17,1 L1,1 Z M1,0 L17,0 C17.6,0 18,0.4 18,1 L18,11 C18,11.6 17.6,12 17,12 L1,12 C0.4,12 0,11.6 0,11 L0,1 C0,0.4 0.4,0 1,0 Z M0.3,1.1 L0.9,0.3 L8.7,6.1 C8.9,6.2 9.1,6.2 9.3,6.1 L17.1,0.3 L17.7,1.1 L9.9,6.9 C9.4,7.3 8.6,7.3 8.1,6.9 L0.3,1.1 Z" id="Icons_x2F_24_x2F_ico_x5F_mail_x2F_v2"/>
        </g>
    </g>
</symbol><symbol id="ico_minimize" viewBox="0 0 16 16">
<path fill="#0C70B7" d="M15.9,0.9l-6,6.1h3.7c0.3,0,0.5,0.2,0.5,0.5s-0.2,0.5-0.5,0.5H8.6c0,0,0,0,0,0c-0.1,0-0.1,0-0.2,0
	C8.3,7.8,8.2,7.7,8.1,7.6c0,0,0,0,0,0c0-0.1,0-0.1,0-0.2V2.5C8.1,2.2,8.3,2,8.6,2s0.5,0.2,0.5,0.5v3.7l6-6.1c0.2-0.2,0.5-0.2,0.7,0
	C16,0.3,16,0.7,15.9,0.9z M7.9,8.4C7.8,8.3,7.7,8.2,7.6,8.1c-0.1,0-0.1,0-0.2,0c0,0,0,0,0,0H2.5C2.2,8.1,2,8.3,2,8.6
	s0.2,0.5,0.5,0.5h3.7l-6,6.1c-0.2,0.2-0.2,0.5,0,0.7C0.2,16,0.4,16,0.5,16s0.3,0,0.4-0.1l6-6.1v3.7c0,0.3,0.2,0.5,0.5,0.5
	s0.5-0.2,0.5-0.5V8.6C7.9,8.5,7.9,8.5,7.9,8.4C7.9,8.4,7.9,8.4,7.9,8.4z"/>
</symbol><symbol id="ico_motion" viewBox="0 0 16 16">
    <!-- Generator: Sketch 52.2 (67145) - http://www.bohemiancoding.com/sketch -->
    <title>Group</title>
    <desc>Created with Sketch.</desc>
    <g id="Page-1" stroke="none" stroke-width="1" fill="none" fill-rule="evenodd">
        <g id="download" transform="translate(-3.000000, -152.000000)">
            <g id="Group" transform="translate(4.000000, 153.000000)">
                <circle id="Oval" stroke="#000000" stroke-width="2" cx="7" cy="7" r="7"/>
                <path d="M4.428,11.33 L4.428,5.56 L9.428,2.67 L9.428,8.44 L4.428,11.33 Z M5.428,9.6 L8.428,7.87 L5.427,6.13 L5.428,9.6 Z" id="Shape" fill="#000000" fill-rule="nonzero"/>
            </g>
        </g>
    </g>
</symbol><symbol id="ico_motion_enabled" viewBox="0 0 16 16">
    <!-- Generator: Sketch 52.2 (67145) - http://www.bohemiancoding.com/sketch -->
    <title>Group 2</title>
    <desc>Created with Sketch.</desc>
    <g id="Page-1" stroke="none" stroke-width="1" fill="none" fill-rule="evenodd">
        <g id="download" transform="translate(-3.000000, -178.000000)">
            <g id="Group-2" transform="translate(4.000000, 179.000000)">
                <circle id="Oval" stroke="#000000" stroke-width="2" cx="7" cy="7" r="7"/>
                <circle id="Oval" fill="#000000" cx="7" cy="7" r="2.5"/>
            </g>
        </g>
    </g>
</symbol><symbol id="ico_myservices" viewBox="0 0 16 16">
<path fill="currentColor" d="M5.3,0H1.7C0.8,0,0,0.8,0,1.7v3.5C0,6.2,0.8,7,1.7,7h3.5C6.2,7,7,6.2,7,5.3V1.7C7,0.8,6.2,0,5.3,0z M6,5.3
	C6,5.7,5.7,6,5.3,6H1.7C1.3,6,1,5.7,1,5.3V1.7C1,1.3,1.3,1,1.7,1h3.5C5.7,1,6,1.3,6,1.7V5.3z M14.3,0h-3.5C9.8,0,9,0.8,9,1.7v3.5
	C9,6.2,9.8,7,10.7,7h3.5c1,0,1.7-0.8,1.7-1.7V1.7C16,0.8,15.2,0,14.3,0z M15,5.3C15,5.7,14.7,6,14.3,6h-3.5C10.3,6,10,5.7,10,5.3
	V1.7C10,1.3,10.3,1,10.7,1h3.5C14.7,1,15,1.3,15,1.7V5.3z M5.3,9H1.7C0.8,9,0,9.8,0,10.7v3.5c0,1,0.8,1.7,1.7,1.7h3.5
	c1,0,1.7-0.8,1.7-1.7v-3.5C7,9.8,6.2,9,5.3,9z M6,14.3C6,14.7,5.7,15,5.3,15H1.7C1.3,15,1,14.7,1,14.3v-3.5C1,10.3,1.3,10,1.7,10
	h3.5C5.7,10,6,10.3,6,10.7V14.3z M14.3,9h-3.5C9.8,9,9,9.8,9,10.7v3.5c0,1,0.8,1.7,1.7,1.7h3.5c1,0,1.7-0.8,1.7-1.7v-3.5
	C16,9.8,15.2,9,14.3,9z M15,14.3c0,0.4-0.3,0.7-0.7,0.7h-3.5c-0.4,0-0.7-0.3-0.7-0.7v-3.5c0-0.4,0.3-0.7,0.7-0.7h3.5
	c0.4,0,0.7,0.3,0.7,0.7V14.3z"/>
</symbol><symbol id="ico_paperclip" viewBox="0 0 8 16"><title>Artboard 1</title><path id="Page-1" d="M4,0A4,4,0,0,0,0,4v9a3,3,0,0,0,6,0V4A2,2,0,0,0,2,4v7.5a.5.5,0,0,0,1,0V4A1,1,0,0,1,5,4v9a2,2,0,0,1-4,0V4A3,3,0,0,1,7,4v7.5a.5.5,0,0,0,1,0V4A4,4,0,0,0,4,0Z"/></symbol><symbol id="ico_pencil" viewBox="0 0 24 24">
<path d="M20,7.1l-2.9-2.9c-0.2-0.2-0.5-0.2-0.7,0l-9.1,9c0,0-0.1,0.1-0.1,0.2
	L5,18.5c0,0.2,0,0.4,0.1,0.5s0.2,0.1,0.4,0.1c0.1,0,0.1,0,0.2,0l5.1-2.1c0.1,0,0.1-0.1,0.2-0.1l9-9.1C20.2,7.6,20.2,7.2,20,7.1z
	 M10.6,15.8l-2.2-2.2l6.5-6.5l2.2,2.2L10.6,15.8z M7.8,14.5l1.9,1.9l-3.3,1.4L7.8,14.5z M17.8,8.6l-2.2-2.2l1.2-1.2L19,7.4L17.8,8.6
	z"/>
</symbol><symbol id="ico_services" viewBox="0 0 19 19">
<path fill="currentColor" d="M12,1.2C12,0.5,11.5,0,10.8,0H8.2C7.5,0,7,0.5,7,1.2v2.6C7,4.5,7.5,5,8.2,5h2.6C11.5,5,12,4.5,12,3.8V1.2z
	 M11,3.6C11,3.8,10.8,4,10.6,4H8.4C8.2,4,8,3.8,8,3.6V1.4C8,1.2,8.2,1,8.4,1h2.2C10.8,1,11,1.2,11,1.4V3.6z M19,1.3
	C19,0.6,18.4,0,17.7,0h-2.4C14.6,0,14,0.6,14,1.3v2.4C14,4.4,14.6,5,15.3,5h2.4C18.4,5,19,4.4,19,3.7V1.3z M18,3.6
	C18,3.8,17.8,4,17.6,4h-2.1C15.2,4,15,3.8,15,3.6V1.4C15,1.2,15.2,1,15.4,1h2.1C17.8,1,18,1.2,18,1.4V3.6z M5,1.2C5,0.5,4.5,0,3.8,0
	H1.2C0.5,0,0,0.5,0,1.2v2.6C0,4.5,0.5,5,1.2,5h2.6C4.5,5,5,4.5,5,3.8V1.2z M4,3.6C4,3.8,3.8,4,3.6,4H1.4C1.2,4,1,3.8,1,3.6V1.4
	C1,1.2,1.2,1,1.4,1h2.2C3.8,1,4,1.2,4,1.4V3.6z M12,8.2C12,7.5,11.5,7,10.8,7H8.2C7.5,7,7,7.5,7,8.2v2.6C7,11.5,7.5,12,8.2,12h2.6
	c0.7,0,1.2-0.5,1.2-1.2V8.2z M11,10.6c0,0.2-0.2,0.4-0.4,0.4H8.4C8.2,11,8,10.8,8,10.6V8.4C8,8.2,8.2,8,8.4,8h2.2
	C10.8,8,11,8.2,11,8.4V10.6z M19,8.3C19,7.6,18.4,7,17.7,7h-2.4C14.6,7,14,7.6,14,8.3v2.4c0,0.7,0.6,1.3,1.3,1.3h2.4
	c0.7,0,1.3-0.6,1.3-1.3V8.3z M18,10.6c0,0.2-0.2,0.4-0.4,0.4h-2.1c-0.2,0-0.4-0.2-0.4-0.4V8.4C15,8.2,15.2,8,15.4,8h2.1
	C17.8,8,18,8.2,18,8.4V10.6z M5,8.2C5,7.5,4.5,7,3.8,7H1.2C0.5,7,0,7.5,0,8.2v2.6C0,11.5,0.5,12,1.2,12h2.6C4.5,12,5,11.5,5,10.8
	V8.2z M4,10.6C4,10.8,3.8,11,3.6,11H1.4C1.2,11,1,10.8,1,10.6V8.4C1,8.2,1.2,8,1.4,8h2.2C3.8,8,4,8.2,4,8.4V10.6z M12,15.2
	c0-0.7-0.5-1.2-1.2-1.2H8.2C7.5,14,7,14.5,7,15.2v2.6C7,18.5,7.5,19,8.2,19h2.6c0.7,0,1.2-0.5,1.2-1.2V15.2z M11,17.6
	c0,0.2-0.2,0.4-0.4,0.4H8.4C8.2,18,8,17.8,8,17.6v-2.2C8,15.2,8.2,15,8.4,15h2.2c0.2,0,0.4,0.2,0.4,0.4V17.6z M19,15.3
	c0-0.7-0.6-1.3-1.3-1.3h-2.4c-0.7,0-1.3,0.6-1.3,1.3v2.4c0,0.7,0.6,1.3,1.3,1.3h2.4c0.7,0,1.3-0.6,1.3-1.3V15.3z M18,17.6
	c0,0.2-0.2,0.4-0.4,0.4h-2.1c-0.2,0-0.4-0.2-0.4-0.4v-2.1c0-0.2,0.2-0.4,0.4-0.4h2.1c0.2,0,0.4,0.2,0.4,0.4V17.6z M5,15.2
	C5,14.5,4.5,14,3.8,14H1.2C0.5,14,0,14.5,0,15.2v2.6C0,18.5,0.5,19,1.2,19h2.6C4.5,19,5,18.5,5,17.8V15.2z M4,17.6
	C4,17.8,3.8,18,3.6,18H1.4C1.2,18,1,17.8,1,17.6v-2.2C1,15.2,1.2,15,1.4,15h2.2C3.8,15,4,15.2,4,15.4V17.6z"/>
</symbol><symbol id="ico_settings" viewBox="0 0 20 20">
<path fill="currentColor" d="M19,7.9l-1.4-0.2c-0.1-0.5-0.3-0.9-0.6-1.4l0.8-1.2c0.4-0.5,0.3-1.2-0.1-1.6l-1.2-1.2c-0.2-0.2-0.5-0.4-0.9-0.4
	c-0.3,0-0.5,0.1-0.7,0.2L13.7,3c-0.5-0.2-0.9-0.4-1.4-0.6L12.1,1c-0.1-0.6-0.6-1-1.2-1H9.1C8.5,0,8,0.4,7.9,1L7.6,2.5
	C7.2,2.6,6.7,2.8,6.3,3L5.1,2.2C4.9,2,4.7,2,4.4,2C4.1,2,3.8,2.1,3.5,2.3L2.3,3.6C1.8,4,1.8,4.7,2.1,5.2L3,6.3
	C2.7,6.8,2.6,7.2,2.4,7.7L1,7.9C0.4,8,0,8.6,0,9.2v1.8c0,0.6,0.4,1.1,1,1.2l1.4,0.2c0.1,0.5,0.3,0.9,0.6,1.4l-0.8,1.1
	c-0.4,0.5-0.3,1.2,0.1,1.6l1.2,1.2c0.2,0.2,0.5,0.4,0.9,0.4c0.3,0,0.5-0.1,0.7-0.2L6.3,17c0.4,0.2,0.9,0.4,1.3,0.5L7.9,19
	c0.1,0.6,0.6,1,1.2,1h1.8c0.6,0,1.1-0.4,1.2-1l0.2-1.4c0.5-0.1,0.9-0.3,1.4-0.6l1.2,0.8c0.2,0.2,0.5,0.2,0.7,0.2l0,0
	c0.3,0,0.6-0.1,0.9-0.4l1.2-1.2c0.4-0.4,0.5-1.1,0.1-1.6L17,13.7c0.2-0.4,0.4-0.9,0.6-1.4l1.4-0.2c0.6-0.1,1-0.6,1-1.2V9.1
	C20,8.5,19.6,8,19,7.9z M18.9,10.9c0,0.1,0,0.1-0.1,0.1L17,11.3c-0.2,0-0.4,0.2-0.5,0.4c-0.2,0.6-0.4,1.2-0.7,1.8
	c-0.1,0.2-0.1,0.4,0,0.6l1,1.5c0,0,0,0.1,0,0.1l-1.2,1.2c0,0-0.1,0-0.1,0c0,0,0,0-0.1,0l-1.4-1c-0.2-0.1-0.4-0.1-0.6,0
	c-0.5,0.3-1.1,0.6-1.8,0.7c-0.2,0.1-0.4,0.2-0.4,0.5L11,18.8c0,0.1-0.1,0.1-0.1,0.1H9.1c-0.1,0-0.1,0-0.1-0.1L8.7,17
	c0-0.2-0.2-0.4-0.4-0.5c-0.6-0.2-1.2-0.4-1.7-0.7c-0.1-0.1-0.2-0.1-0.3-0.1c-0.1,0-0.2,0-0.3,0.1l-1.5,1c0,0,0,0-0.1,0
	c0,0-0.1,0-0.1,0l-1.2-1.2c0,0,0-0.1,0-0.1l1-1.4c0.1-0.2,0.1-0.4,0-0.6c-0.3-0.5-0.6-1.1-0.7-1.7c-0.1-0.2-0.2-0.4-0.5-0.4L1.2,11
	c-0.1,0-0.1-0.1-0.1-0.1V9.2c0-0.1,0-0.1,0.1-0.1L3,8.8c0.2,0,0.4-0.2,0.5-0.4c0.2-0.6,0.4-1.2,0.7-1.8c0.1-0.2,0.1-0.4,0-0.6
	l-1-1.5c0,0,0-0.1,0-0.1l1.2-1.2c0,0,0.1,0,0.1,0c0,0,0,0,0.1,0l1.4,1c0.2,0.1,0.4,0.1,0.6,0c0.5-0.3,1.1-0.6,1.7-0.7
	C8.5,3.4,8.6,3.2,8.7,3L9,1.2C9,1.2,9,1.1,9.1,1.1h1.8c0.1,0,0.1,0,0.1,0.1L11.3,3c0,0.2,0.2,0.4,0.4,0.5c0.6,0.2,1.2,0.4,1.8,0.7
	c0.2,0.1,0.4,0.1,0.6,0l1.4-1c0,0,0,0,0.1,0c0,0,0.1,0,0.1,0l1.2,1.2c0,0,0,0.1,0,0.1l-1,1.4c-0.1,0.2-0.1,0.4,0,0.6
	c0.3,0.5,0.6,1.1,0.7,1.8c0.1,0.2,0.2,0.4,0.5,0.4L18.8,9c0.1,0,0.1,0.1,0.1,0.1L18.9,10.9L18.9,10.9z M10,5.7
	c-2.4,0-4.3,1.9-4.3,4.3s1.9,4.3,4.3,4.3s4.3-1.9,4.3-4.3S12.4,5.7,10,5.7z M10,13.2c-1.8,0-3.2-1.4-3.2-3.2S8.2,6.8,10,6.8
	s3.2,1.4,3.2,3.2S11.8,13.2,10,13.2z"/>
</symbol><symbol id="ico_settings2" viewBox="0 0 16 16">
    <!-- Generator: Sketch 52.2 (67145) - http://www.bohemiancoding.com/sketch -->
    <title>ico_settings2</title>
    <desc>Created with Sketch.</desc>
    <g id="Page-1" stroke="none" stroke-width="1" fill="none" fill-rule="evenodd">
        <g id="ico_settings2" fill-rule="nonzero" fill="currentColor">
            <path d="M5.4,2 C5.3,1.3 4.7,0.7 4,0.6 C2.9,0.3 1.8,0.9 1.6,2 L0,2 L0,3 L1.6,3 C1.7,3.7 2.3,4.3 3,4.4 C4.1,4.7 5.2,4.1 5.4,3 L16,3 L16,2 L5.4,2 Z M3.5,3.5 C2.9,3.5 2.5,3.1 2.5,2.5 C2.5,1.9 2.9,1.5 3.5,1.5 C4.1,1.5 4.5,1.9 4.5,2.5 C4.5,3.1 4.1,3.5 3.5,3.5 Z" id="Shape"/>
            <path d="M9.9,7.5 C9.7,6.8 9.2,6.2 8.5,6.1 C7.4,5.8 6.3,6.5 6.1,7.5 L0,7.5 L0,8.5 L6.1,8.5 C6.3,9.2 6.8,9.8 7.5,9.9 C8.6,10.2 9.7,9.5 9.9,8.5 L16,8.5 L16,7.5 L9.9,7.5 Z M8,9 C7.4,9 7,8.6 7,8 C7,7.4 7.4,7 8,7 C8.6,7 9,7.4 9,8 C9,8.6 8.6,9 8,9 Z" id="Shape"/>
            <path d="M14.4,13 C14.2,12.3 13.7,11.7 13,11.6 C11.9,11.3 10.8,12 10.6,13 L0,13 L0,14 L10.6,14 C10.8,14.7 11.3,15.3 12,15.4 C13.1,15.7 14.2,15 14.4,14 L16,14 L16,13 L14.4,13 Z M12.5,14.5 C11.9,14.5 11.5,14.1 11.5,13.5 C11.5,12.9 11.9,12.5 12.5,12.5 C13.1,12.5 13.5,12.9 13.5,13.5 C13.5,14.1 13.1,14.5 12.5,14.5 Z" id="Shape"/>
        </g>
    </g>
</symbol><symbol id="ico_social_media_icongroup" viewBox="0 0 54 58">
	<path fill="currentColor" d="M53.14,28.83l-.19-6-5.17.82-.2-1.29a.63.63,0,0,1,.05-.46.53.53,0,0,1,.3-.13l3.89-.62-1-6.52-5.93.92c-2.49.39-4.18,1.51-5,3.32a7.58,7.58,0,0,0-.47,4.48l.25,1.59-4.33.69.93,5.89,4.33-.69L42.85,45.5,51,44.2,48.71,29.53Zm-4.06,14-4.8.76L41.95,28.87l-4.33.69L37.22,27l4.33-.69L41,23.08a6.15,6.15,0,0,1,.33-3.48,4.6,4.6,0,0,1,3.76-2.36l4.25-.66.5,3.15-2.2.35a2.21,2.21,0,0,0-1.29.67,2.15,2.15,0,0,0-.48,1.88l.47,3,4.95-.78.08,2.56-4.63.73ZM34.79,2.71a12.42,12.42,0,0,1-1.62.93,12.51,12.51,0,0,1-1.71.67l0,0A6.39,6.39,0,0,0,33.51.37a12.57,12.57,0,0,1-1.73,1.26,12.47,12.47,0,0,1-1.93,1h0A6.25,6.25,0,0,0,25,1.39a6.38,6.38,0,0,0-4.68,8.8,17.81,17.81,0,0,1-14-4.32,6.46,6.46,0,0,0,3.4,8.07,6.21,6.21,0,0,1-3-.29A6.38,6.38,0,0,0,12.86,19a6.23,6.23,0,0,1-2.78.6A6.32,6.32,0,0,0,16.65,23,12.55,12.55,0,0,1,7.92,27.2a17.66,17.66,0,0,0,10,1.15c11.52-2,16.29-13.05,14.34-21.84A12.91,12.91,0,0,0,34.79,2.71ZM28.15,20a15.5,15.5,0,0,1-10.51,6.71,15.62,15.62,0,0,1-3.07.24,14.34,14.34,0,0,0,3.36-2.8l3.15-3.56-4.7.74a4.54,4.54,0,0,1-3-.6l.26-.12L20,17.5l-7.14-.19a4.64,4.64,0,0,1-3.37-1.63l.44-.05,5.85-.84-5.39-2.42A4.71,4.71,0,0,1,7.76,9.06a19.52,19.52,0,0,0,12.73,2.83l2.25-.28-.88-2.08a4.73,4.73,0,0,1,.2-4.12,4.54,4.54,0,0,1,6.74-1.47,4.25,4.25,0,0,1,1.81,3A17.23,17.23,0,0,1,28.15,20Zm-6.59,24.3L15.9,40.08a2.67,2.67,0,0,0-4.22,1.73l-1,6.42a2.67,2.67,0,0,0,2.22,3.05,2.63,2.63,0,0,0,.41,0,2.7,2.7,0,0,0,.85-.14l6.67-2.24a2.67,2.67,0,0,0,.73-4.68Zm-.64,2.3a1,1,0,0,1-.64.76L13.6,49.55a1,1,0,0,1-1.25-1.06l1-6.42a1,1,0,0,1,1.52-.62l5.66,4.17A1,1,0,0,1,20.92,46.55Zm10.2-7c-.86-1.43-2.74-2.25-6.48-2.84L11.06,34.54c-3.83-.61-5.9-.37-7.17.8s-1.54,3.07-2,5.74l-.8,5.08c-.82,5.16,0,8,6.67,9l13.57,2.15c3.24.51,5.11.34,6.45-.58S30,54,30.5,50.81l.8-5.08C31.75,42.92,32,41,31.12,39.53Zm-1.5,5.93-.8,5.08c-.43,2.68-1,4.17-2,4.81s-2.49.73-5.21.3L8.06,53.5c-2.68-.42-4.3-1.14-5-2.2s-.67-2.39-.28-4.88l.8-5.08c.37-2.33.63-4,1.44-4.75a3.73,3.73,0,0,1,2.56-.67,21,21,0,0,1,3.18.3l13.57,2.15c3.1.49,4.73,1.12,5.28,2h0C30.22,41.35,30,43.1,29.62,45.46Z"/>
</symbol><symbol id="ico_trash" viewBox="0 0 24 24">
<path fill="" d="M18,8H6V6h3h6h3V8z M17,20H7V9l10,0V20z M10,5V4h4v1H10z M14,18v-7h1v7H14z M11.5,18
	v-7h1v7H11.5z M9,18v-7h1v7H9z M19,6c0-0.6-0.4-1-1-1h-3V4c0-0.6-0.4-1-1-1h-4C9.4,3,9,3.4,9,4v1H6C5.4,5,5,5.4,5,6v3h1v12h12V9h1V6
	z"/>
</symbol></svg>